<?xml version="1.0" encoding="UTF-8"?>
<svg id="_图层_1" xmlns="http://www.w3.org/2000/svg" version="1.1" viewBox="0 0 400 400">
  <!-- Generator: Adobe Illustrator 30.0.0, SVG Export Plug-In . SVG Version: 2.1.1 Build 123)  -->
  <defs>
    <style>
      .st0 {
        fill: #fdfcfa;
      }

      .st1 {
        fill: #d6d6d6;
      }

      .st2 {
        fill: #044735;
      }
    </style>
  </defs>
  <rect class="st0" width="400" height="400"/>
  <path class="st2" d="M179.56,113.11l118.3-7.63c14-.9,26.16,11.97,27.16,28.75l1.96,32.91c.25,4.19-2.39,7.78-5.89,8h0l-137.31,8.86c-14,.9-26.16-11.97-27.16-28.75l-.61-10.13c-1-16.78,9.54-31.11,23.53-32.02h0Z"/>
  <path class="st1" d="M111.72,220.99l95.74,7.39c11.33.87,19.45,15.43,18.13,32.5l-.8,10.31c-1.32,17.08-11.57,30.21-22.9,29.34l-111.13-8.58c-2.83-.22-4.86-3.86-4.53-8.13l2.58-33.5c1.32-17.08,11.57-30.21,22.9-29.34h0Z"/>
</svg>