<?xml version="1.0" encoding="UTF-8"?>
<svg id="_图层_1" data-name="图层_1" xmlns="http://www.w3.org/2000/svg" version="1.1" viewBox="0 0 400 400">
  <!-- Generator: Adobe Illustrator 30.0.0, SVG Export Plug-In . SVG Version: 2.1.1 Build 123)  -->
  <defs>
    <style>
      .st0 {
        fill: #fdfcfa;
      }

      .st1 {
        fill: #044735;
      }

      .st2 {
        fill: #bcbcbc;
      }
    </style>
  </defs>
  <rect class="st0" width="400" height="400"/>
  <path class="st1" d="M179.11,108.21l133.81-8.3c15.84-.98,29.59,13.02,30.72,31.27l2.22,35.81c.28,4.56-2.7,8.46-6.66,8.71h0l-155.32,9.64c-15.84.98-29.59-13.02-30.72-31.27l-.68-11.02c-1.13-18.26,10.79-33.85,26.62-34.83Z"/>
  <path class="st2" d="M104.28,225.57l104.16,8.04c12.33.95,21.16,16.78,19.72,35.36l-.87,11.21c-1.43,18.58-12.59,32.87-24.92,31.92l-120.9-9.33c-3.08-.24-5.29-4.2-4.93-8.84l2.81-36.44c1.43-18.58,12.59-32.87,24.92-31.92Z"/>
</svg>